<svg width="120" height="60" fill="none" xmlns="http://www.w3.org/2000/svg"><mask id="a" style="mask-type:alpha" maskUnits="userSpaceOnUse" x="0" y="0" width="120" height="60"><rect width="120" height="60" rx="4" fill="#D9D9D9"/></mask><g mask="url(#a)"><mask id="b" style="mask-type:alpha" maskUnits="userSpaceOnUse" x="61" y="30" width="24" height="23"><rect x="61.5" y="30.5" width="23" height="22" rx="11" fill="#D9D9D9"/></mask><g mask="url(#b)"><path fill="url(#c)" d="M60.542 29.583h24.917v23.833H60.542z"/></g><g filter="url(#d)"><path d="M15.637 29.168c-1.456 0-2.856-.233-4.2-.7-1.326-.485-2.352-1.101-3.08-1.848l.812-1.596c.69.672 1.614 1.241 2.772 1.708 1.176.448 2.408.672 3.696.672 1.232 0 2.23-.15 2.996-.448.784-.317 1.353-.737 1.708-1.26.373-.523.56-1.101.56-1.736 0-.765-.224-1.381-.672-1.848-.43-.467-.999-.83-1.708-1.092-.71-.28-1.494-.523-2.352-.728-.859-.205-1.718-.42-2.576-.644a11.735 11.735 0 0 1-2.38-.952 5.123 5.123 0 0 1-1.736-1.54c-.43-.653-.644-1.503-.644-2.548 0-.97.252-1.857.756-2.66.522-.821 1.316-1.475 2.38-1.96 1.064-.504 2.426-.756 4.088-.756 1.101 0 2.193.159 3.276.476 1.082.299 2.016.719 2.8 1.26l-.7 1.652a9.218 9.218 0 0 0-2.688-1.232 10.056 10.056 0 0 0-2.716-.392c-1.176 0-2.147.159-2.912.476-.766.317-1.335.747-1.708 1.288a3.117 3.117 0 0 0-.532 1.792c0 .765.214 1.381.644 1.848.448.467 1.026.83 1.736 1.092.728.261 1.521.495 2.38.7.858.205 1.708.43 2.548.672.858.243 1.642.56 2.352.952a4.564 4.564 0 0 1 1.736 1.512c.448.635.672 1.465.672 2.492 0 .952-.262 1.839-.784 2.66-.523.803-1.326 1.456-2.408 1.96-1.064.485-2.436.728-4.116.728ZM30.259 29V9.4h7.336c1.662 0 3.09.27 4.284.812 1.195.523 2.11 1.288 2.744 2.296.654.99.98 2.193.98 3.612 0 1.381-.327 2.576-.98 3.584-.634.99-1.55 1.755-2.744 2.296-1.194.541-2.622.812-4.284.812h-6.188l.924-.98V29H30.26Zm2.072-7-.924-1.008h6.132c1.96 0 3.444-.42 4.452-1.26 1.027-.859 1.54-2.063 1.54-3.612 0-1.568-.513-2.781-1.54-3.64-1.008-.859-2.492-1.288-4.452-1.288h-6.132l.924-.98V22Zm16.432 7 8.96-19.6h2.044l8.96 19.6h-2.184l-8.232-18.396h.84L50.919 29h-2.156Zm3.528-5.236.616-1.68h11.396l.616 1.68H52.291Zm30.717 5.404c-1.475 0-2.837-.243-4.088-.728a9.84 9.84 0 0 1-3.248-2.1 9.816 9.816 0 0 1-2.156-3.164c-.504-1.213-.756-2.539-.756-3.976 0-1.437.252-2.763.756-3.976a9.816 9.816 0 0 1 2.156-3.164 9.788 9.788 0 0 1 3.276-2.072c1.25-.504 2.613-.756 4.088-.756 1.419 0 2.753.243 4.004.728a7.914 7.914 0 0 1 3.164 2.128l-1.316 1.316c-.803-.821-1.69-1.41-2.66-1.764a8.662 8.662 0 0 0-3.136-.56c-1.176 0-2.268.205-3.276.616a7.544 7.544 0 0 0-2.632 1.708 8.01 8.01 0 0 0-1.764 2.576c-.41.97-.616 2.044-.616 3.22 0 1.176.205 2.259.616 3.248.43.97 1.017 1.83 1.764 2.576a8.11 8.11 0 0 0 2.632 1.708c1.008.392 2.1.588 3.276.588a8.67 8.67 0 0 0 3.136-.56c.97-.373 1.857-.97 2.66-1.792l1.316 1.316c-.859.952-1.913 1.67-3.164 2.156-1.25.485-2.595.728-4.032.728Zm16.26-11.004h10.361v1.764h-10.36v-1.764Zm.225 9.044h11.788V29h-13.86V9.4h13.44v1.792H99.493v16.016ZM17.258 53.192a14.53 14.53 0 0 1-4.8-.8c-1.514-.555-2.688-1.259-3.52-2.112l.928-1.824c.79.768 1.846 1.419 3.168 1.952 1.344.512 2.752.768 4.224.768 1.408 0 2.55-.17 3.424-.512.896-.363 1.547-.843 1.952-1.44.427-.597.64-1.259.64-1.984 0-.875-.256-1.579-.768-2.112-.49-.533-1.141-.95-1.952-1.248-.81-.32-1.706-.597-2.688-.832a152.49 152.49 0 0 1-2.944-.736 13.404 13.404 0 0 1-2.72-1.088 5.855 5.855 0 0 1-1.984-1.76c-.49-.747-.736-1.717-.736-2.912a5.6 5.6 0 0 1 .864-3.04c.598-.939 1.504-1.685 2.72-2.24 1.216-.576 2.774-.864 4.672-.864 1.259 0 2.507.181 3.744.544 1.238.341 2.304.821 3.2 1.44l-.8 1.888c-.96-.64-1.984-1.11-3.072-1.408a11.49 11.49 0 0 0-3.104-.448c-1.344 0-2.453.181-3.328.544-.874.363-1.525.853-1.952 1.472-.405.597-.608 1.28-.608 2.048 0 .875.246 1.579.736 2.112.512.533 1.174.95 1.984 1.248.832.299 1.739.565 2.72.8.982.235 1.952.49 2.912.768.982.277 1.878.64 2.688 1.088.832.427 1.494 1.003 1.984 1.728.512.725.768 1.675.768 2.848a5.558 5.558 0 0 1-.896 3.04c-.597.917-1.514 1.664-2.752 2.24-1.216.555-2.784.832-4.704.832ZM50.354 30.6h2.336V53h-2.336V30.6ZM36.338 53H33.97V30.6h2.368V53Zm14.24-10.336H36.082v-2.08h14.496v2.08Zm22.415 10.528c-1.685 0-3.253-.277-4.704-.832a11.614 11.614 0 0 1-3.744-2.4 11.7 11.7 0 0 1-2.464-3.616c-.576-1.387-.864-2.901-.864-4.544 0-1.643.288-3.147.864-4.512a11.219 11.219 0 0 1 2.464-3.616 10.944 10.944 0 0 1 3.744-2.4c1.43-.576 2.998-.864 4.704-.864 1.686 0 3.243.288 4.672.864a10.842 10.842 0 0 1 3.712 2.368 10.581 10.581 0 0 1 2.464 3.616c.598 1.387.896 2.901.896 4.544 0 1.643-.298 3.157-.896 4.544a10.581 10.581 0 0 1-2.464 3.616c-1.045 1.024-2.282 1.824-3.712 2.4-1.43.555-2.987.832-4.672.832Zm0-2.112c1.344 0 2.582-.224 3.712-.672a8.907 8.907 0 0 0 2.976-1.952 9.188 9.188 0 0 0 1.984-2.944c.47-1.13.704-2.368.704-3.712 0-1.344-.234-2.57-.704-3.68a8.745 8.745 0 0 0-1.984-2.944 8.304 8.304 0 0 0-2.976-1.952c-1.13-.47-2.368-.704-3.712-.704-1.344 0-2.592.235-3.744.704a8.623 8.623 0 0 0-3.008 1.952 9.42 9.42 0 0 0-1.984 2.944c-.47 1.11-.704 2.336-.704 3.68 0 1.323.235 2.55.704 3.68a9.82 9.82 0 0 0 1.984 2.976 9.268 9.268 0 0 0 3.008 1.952c1.152.448 2.4.672 3.744.672ZM93.245 53V30.6h8.384c1.899 0 3.531.31 4.896.928 1.365.597 2.411 1.472 3.136 2.624.747 1.13 1.12 2.507 1.12 4.128 0 1.579-.373 2.944-1.12 4.096-.725 1.13-1.771 2.005-3.136 2.624-1.365.619-2.997.928-4.896.928h-7.072l1.056-1.12V53h-2.368Zm2.368-8-1.056-1.152h7.008c2.24 0 3.936-.48 5.088-1.44 1.173-.981 1.76-2.357 1.76-4.128 0-1.792-.587-3.179-1.76-4.16-1.152-.981-2.848-1.472-5.088-1.472h-7.008l1.056-1.12V45Z" fill="#fff"/></g></g><defs><linearGradient id="c" x1="37.701" y1="73.973" x2="87.522" y2="71.453" gradientUnits="userSpaceOnUse"><stop stop-color="#801AB3" stop-opacity="0"/><stop offset="1" stop-color="#4C4CFF"/></linearGradient><filter id="d" x="4.357" y="5.232" width="110.924" height="51.96" filterUnits="userSpaceOnUse" color-interpolation-filters="sRGB"><feFlood flood-opacity="0" result="BackgroundImageFix"/><feColorMatrix in="SourceAlpha" values="0 0 0 0 0 0 0 0 0 0 0 0 0 0 0 0 0 0 127 0" result="hardAlpha"/><feOffset/><feGaussianBlur stdDeviation="2"/><feComposite in2="hardAlpha" operator="out"/><feColorMatrix values="0 0 0 0 0 0 0 0 0 0 0 0 0 0 0 0 0 0 0.25 0"/><feBlend in2="BackgroundImageFix" result="effect1_dropShadow_4_232"/><feBlend in="SourceGraphic" in2="effect1_dropShadow_4_232" result="shape"/></filter></defs></svg>